<?xml version="1.0" standalone="no"?>
<!DOCTYPE svg PUBLIC "-//W3C//DTD SVG 20010904//EN"
 "http://www.w3.org/TR/2001/REC-SVG-20010904/DTD/svg10.dtd">
<svg version="1.0" xmlns="http://www.w3.org/2000/svg"
 width="512.000000pt" height="512.000000pt" viewBox="0 0 512.000000 512.000000"
 preserveAspectRatio="xMidYMid meet">
<metadata>
Created by potrace 1.11, written by Peter Selinger 2001-2013
</metadata>
<g transform="translate(0.000000,512.000000) scale(0.100000,-0.100000)"
fill="#000000" stroke="none">
<path d="M1569 4859 c-77 -27 -158 -108 -187 -186 -21 -57 -22 -71 -22 -669 0
-585 1 -614 20 -670 32 -93 122 -179 210 -200 19 -4 38 -9 43 -10 4 -1 160 -2
347 -3 l340 -1 0 -315 c0 -173 2 -315 6 -315 3 0 81 77 175 170 101 102 174
168 181 164 7 -4 8 -3 4 4 -4 6 53 71 133 151 l140 140 283 3 283 3 55 28 c65
34 118 88 151 154 l24 48 0 645 0 645 -25 50 c-31 61 -99 129 -160 158 l-45
22 -950 2 c-922 2 -952 1 -1006 -18z m941 -578 c14 -8 27 -18 30 -21 3 -3 14
-10 25 -16 39 -22 69 -39 79 -47 6 -5 76 -49 156 -98 80 -49 145 -94 145 -100
0 -5 -35 -31 -77 -57 -76 -46 -392 -244 -495 -309 l-53 -34 0 401 0 400 83
-51 c45 -29 93 -59 107 -68z"/>
<path d="M1563 2790 c-191 -38 -363 -167 -448 -335 -22 -44 -42 -82 -45 -85
-3 -3 -6 -14 -7 -25 0 -11 -6 -49 -13 -85 -23 -124 -1 -257 63 -390 94 -192
297 -330 514 -347 58 -4 74 -3 68 6 -4 7 -9 60 -11 119 -6 162 24 303 95 452
69 144 206 297 343 384 l77 48 -25 33 c-64 84 -183 165 -304 205 -71 24 -231
34 -307 20z"/>
<path d="M3500 2794 c-53 -9 -137 -38 -191 -65 -82 -41 -188 -129 -221 -183
-4 -8 24 -32 75 -66 152 -101 285 -256 356 -417 58 -134 75 -220 75 -391 l0
-154 56 5 c324 27 573 288 585 614 10 293 -184 561 -465 639 -55 15 -222 26
-270 18z"/>
<path d="M2540 2314 c-53 -10 -167 -48 -200 -67 -133 -73 -250 -208 -298 -342
-30 -84 -36 -118 -36 -215 -1 -107 6 -148 34 -230 68 -192 254 -357 457 -404
131 -30 308 -9 426 49 97 49 222 162 261 236 7 13 18 33 24 44 50 90 73 194
68 320 -7 207 -101 379 -272 501 -34 24 -64 44 -67 44 -2 0 -22 7 -43 16 -22
9 -39 15 -40 13 0 -2 -8 2 -17 10 -10 7 -17 11 -17 7 0 -3 -12 -1 -26 5 -30
11 -215 20 -254 13z"/>
<path d="M985 1439 c-16 -5 -39 -11 -50 -13 -38 -7 -218 -68 -271 -92 -30 -13
-54 -22 -54 -19 0 2 -21 -8 -47 -23 -27 -16 -56 -31 -65 -35 -9 -3 -35 -17
-57 -32 l-41 -25 0 -240 0 -240 319 0 319 0 7 47 c9 61 43 128 90 176 36 37
179 127 201 127 7 0 14 3 16 8 4 11 155 78 222 99 31 10 56 21 56 26 0 4 -3 6
-7 5 -21 -6 -150 15 -210 33 -67 20 -183 68 -193 79 -3 3 -22 14 -43 25 -20
11 -47 29 -60 40 -35 30 -85 65 -94 64 -4 0 -21 -5 -38 -10z"/>
<path d="M4183 1402 c-81 -61 -200 -125 -219 -118 -8 3 -12 2 -9 -4 8 -13
-145 -59 -223 -66 -37 -3 -71 -10 -76 -15 -6 -6 -3 -9 7 -9 23 0 209 -77 287
-119 181 -97 253 -166 276 -261 4 -19 9 -38 10 -42 1 -5 2 -17 3 -28 1 -20 8
-20 319 -20 l319 0 0 241 0 240 -66 38 c-118 69 -311 144 -484 190 -42 12 -78
21 -80 21 -1 -1 -30 -22 -64 -48z"/>
<path d="M1910 949 c-41 -11 -82 -21 -90 -23 -87 -22 -339 -130 -420 -181
l-40 -25 0 -240 0 -240 1280 0 1280 0 0 243 0 242 -87 47 c-119 63 -266 121
-418 164 l-126 36 -37 -29 c-123 -98 -272 -172 -392 -197 -14 -3 -36 -8 -50
-12 -46 -12 -274 -12 -335 1 -162 33 -285 87 -410 180 -41 30 -76 55 -77 54
-2 0 -37 -9 -78 -20z"/>
</g>
</svg>
